<mxfile host="app.diagrams.net" modified="2023-04-07T02:30:25.968Z" agent="Mozilla/5.0 (Windows NT 10.0; Win64; x64) AppleWebKit/537.36 (KHTML, like Gecko) Chrome/111.0.0.0 Safari/537.36" etag="TrVBLnups7FLjgFWSuU6" version="21.1.4">
  <diagram name="Page-1" id="ogjKg3cm4wp8bKC2_6iC">
    <mxGraphModel dx="1680" dy="987" grid="1" gridSize="10" guides="1" tooltips="1" connect="1" arrows="1" fold="1" page="1" pageScale="1" pageWidth="1654" pageHeight="2336" math="0" shadow="0">
      <root>
        <mxCell id="0" />
        <mxCell id="1" parent="0" />
        <mxCell id="IgG5niwhhBYyqKMsFp1a-204" value="" style="group" vertex="1" connectable="0" parent="1">
          <mxGeometry x="840" y="280" width="400" height="280" as="geometry" />
        </mxCell>
        <mxCell id="IgG5niwhhBYyqKMsFp1a-142" value="&lt;span style=&quot;font-weight: 400;&quot;&gt;attendant&lt;/span&gt;" style="shape=folder;fontStyle=1;tabWidth=80;tabHeight=20;tabPosition=left;html=1;boundedLbl=1;labelInHeader=1;container=0;collapsible=0;recursiveResize=0;whiteSpace=wrap;fillColor=default;" vertex="1" parent="IgG5niwhhBYyqKMsFp1a-204">
          <mxGeometry width="400" height="280" as="geometry" />
        </mxCell>
        <mxCell id="IgG5niwhhBYyqKMsFp1a-143" value="&lt;p style=&quot;margin:0px;margin-top:4px;text-align:center;&quot;&gt;AttendantView&lt;/p&gt;&lt;div style=&quot;height:2px;&quot;&gt;&lt;hr&gt;&lt;hr&gt;&amp;nbsp;&lt;/div&gt;" style="verticalAlign=top;align=left;overflow=fill;fontSize=12;fontFamily=Helvetica;html=1;whiteSpace=wrap;fontStyle=0;container=0;fillColor=#cce5ff;strokeColor=#36393d;" vertex="1" parent="IgG5niwhhBYyqKMsFp1a-204">
          <mxGeometry x="220" y="220" width="160" height="40" as="geometry" />
        </mxCell>
        <mxCell id="IgG5niwhhBYyqKMsFp1a-144" value="&lt;p style=&quot;margin:0px;margin-top:4px;text-align:center;&quot;&gt;AttendantModel&lt;/p&gt;&lt;div style=&quot;height:2px;&quot;&gt;&lt;hr&gt;&lt;hr&gt;&amp;nbsp;&lt;/div&gt;" style="verticalAlign=top;align=left;overflow=fill;fontSize=12;fontFamily=Helvetica;html=1;whiteSpace=wrap;fontStyle=0;container=0;fillColor=#eeeeee;strokeColor=#36393d;" vertex="1" parent="IgG5niwhhBYyqKMsFp1a-204">
          <mxGeometry x="20" y="220" width="160" height="40" as="geometry" />
        </mxCell>
        <mxCell id="IgG5niwhhBYyqKMsFp1a-145" style="rounded=0;orthogonalLoop=1;jettySize=auto;html=1;entryX=0.5;entryY=0;entryDx=0;entryDy=0;exitX=0.117;exitY=1.027;exitDx=0;exitDy=0;endArrow=open;endFill=0;exitPerimeter=0;" edge="1" parent="IgG5niwhhBYyqKMsFp1a-204" source="IgG5niwhhBYyqKMsFp1a-149" target="IgG5niwhhBYyqKMsFp1a-144">
          <mxGeometry relative="1" as="geometry" />
        </mxCell>
        <mxCell id="IgG5niwhhBYyqKMsFp1a-146" value="change state" style="edgeLabel;html=1;align=center;verticalAlign=middle;resizable=0;points=[];container=0;" vertex="1" connectable="0" parent="IgG5niwhhBYyqKMsFp1a-145">
          <mxGeometry x="0.4144" relative="1" as="geometry">
            <mxPoint x="9" y="-36" as="offset" />
          </mxGeometry>
        </mxCell>
        <mxCell id="IgG5niwhhBYyqKMsFp1a-147" style="rounded=0;orthogonalLoop=1;jettySize=auto;html=1;entryX=0.25;entryY=0;entryDx=0;entryDy=0;endArrow=open;endFill=0;exitX=0.7;exitY=1.065;exitDx=0;exitDy=0;exitPerimeter=0;" edge="1" parent="IgG5niwhhBYyqKMsFp1a-204" source="IgG5niwhhBYyqKMsFp1a-149" target="IgG5niwhhBYyqKMsFp1a-143">
          <mxGeometry relative="1" as="geometry">
            <mxPoint x="150" y="150" as="sourcePoint" />
          </mxGeometry>
        </mxCell>
        <mxCell id="IgG5niwhhBYyqKMsFp1a-148" value="updates" style="edgeLabel;html=1;align=center;verticalAlign=middle;resizable=0;points=[];container=0;" vertex="1" connectable="0" parent="IgG5niwhhBYyqKMsFp1a-147">
          <mxGeometry x="-0.3734" relative="1" as="geometry">
            <mxPoint x="-6" y="-6" as="offset" />
          </mxGeometry>
        </mxCell>
        <mxCell id="IgG5niwhhBYyqKMsFp1a-149" value="&lt;p style=&quot;margin:0px;margin-top:4px;text-align:center;&quot;&gt;AttendantController&lt;/p&gt;&lt;div style=&quot;height:2px;&quot;&gt;&lt;hr&gt;&lt;hr&gt;&amp;nbsp;&lt;/div&gt;" style="verticalAlign=top;align=left;overflow=fill;fontSize=12;fontFamily=Helvetica;html=1;whiteSpace=wrap;fontStyle=0;container=0;fillColor=#dae8fc;strokeColor=#6c8ebf;" vertex="1" parent="IgG5niwhhBYyqKMsFp1a-204">
          <mxGeometry x="120" y="100" width="160" height="40" as="geometry" />
        </mxCell>
        <mxCell id="IgG5niwhhBYyqKMsFp1a-150" style="rounded=0;orthogonalLoop=1;jettySize=auto;html=1;exitX=0.5;exitY=0;exitDx=0;exitDy=0;endArrow=open;endFill=0;entryX=0.884;entryY=0.989;entryDx=0;entryDy=0;entryPerimeter=0;" edge="1" parent="IgG5niwhhBYyqKMsFp1a-204" source="IgG5niwhhBYyqKMsFp1a-143" target="IgG5niwhhBYyqKMsFp1a-149">
          <mxGeometry relative="1" as="geometry">
            <mxPoint x="170" y="130" as="targetPoint" />
          </mxGeometry>
        </mxCell>
        <mxCell id="IgG5niwhhBYyqKMsFp1a-151" value="user input" style="edgeLabel;html=1;align=center;verticalAlign=middle;resizable=0;points=[];container=0;" vertex="1" connectable="0" parent="IgG5niwhhBYyqKMsFp1a-150">
          <mxGeometry x="0.2597" y="-1" relative="1" as="geometry">
            <mxPoint x="23" y="34" as="offset" />
          </mxGeometry>
        </mxCell>
        <mxCell id="IgG5niwhhBYyqKMsFp1a-152" style="rounded=0;orthogonalLoop=1;jettySize=auto;html=1;entryX=0.302;entryY=0.989;entryDx=0;entryDy=0;exitX=0.75;exitY=0;exitDx=0;exitDy=0;endArrow=open;endFill=0;entryPerimeter=0;" edge="1" parent="IgG5niwhhBYyqKMsFp1a-204" source="IgG5niwhhBYyqKMsFp1a-144" target="IgG5niwhhBYyqKMsFp1a-149">
          <mxGeometry relative="1" as="geometry" />
        </mxCell>
        <mxCell id="IgG5niwhhBYyqKMsFp1a-153" value="returns data" style="edgeLabel;html=1;align=center;verticalAlign=middle;resizable=0;points=[];container=0;" vertex="1" connectable="0" parent="IgG5niwhhBYyqKMsFp1a-152">
          <mxGeometry x="0.2461" relative="1" as="geometry">
            <mxPoint x="-11" y="34" as="offset" />
          </mxGeometry>
        </mxCell>
        <mxCell id="IgG5niwhhBYyqKMsFp1a-154" style="edgeStyle=orthogonalEdgeStyle;rounded=0;orthogonalLoop=1;jettySize=auto;html=1;exitX=0.75;exitY=1;exitDx=0;exitDy=0;entryX=0.75;entryY=0;entryDx=0;entryDy=0;endArrow=open;endFill=0;" edge="1" parent="IgG5niwhhBYyqKMsFp1a-204" source="IgG5niwhhBYyqKMsFp1a-159" target="IgG5niwhhBYyqKMsFp1a-143">
          <mxGeometry relative="1" as="geometry" />
        </mxCell>
        <mxCell id="IgG5niwhhBYyqKMsFp1a-155" value="creates" style="edgeLabel;html=1;align=center;verticalAlign=middle;resizable=0;points=[];" vertex="1" connectable="0" parent="IgG5niwhhBYyqKMsFp1a-154">
          <mxGeometry x="-0.216" relative="1" as="geometry">
            <mxPoint x="1" y="-35" as="offset" />
          </mxGeometry>
        </mxCell>
        <mxCell id="IgG5niwhhBYyqKMsFp1a-156" style="edgeStyle=orthogonalEdgeStyle;rounded=0;orthogonalLoop=1;jettySize=auto;html=1;entryX=0.25;entryY=0;entryDx=0;entryDy=0;endArrow=open;endFill=0;" edge="1" parent="IgG5niwhhBYyqKMsFp1a-204" source="IgG5niwhhBYyqKMsFp1a-159" target="IgG5niwhhBYyqKMsFp1a-144">
          <mxGeometry relative="1" as="geometry" />
        </mxCell>
        <mxCell id="IgG5niwhhBYyqKMsFp1a-157" style="edgeStyle=orthogonalEdgeStyle;rounded=0;orthogonalLoop=1;jettySize=auto;html=1;entryX=0.25;entryY=0;entryDx=0;entryDy=0;exitX=0;exitY=0.5;exitDx=0;exitDy=0;endArrow=open;endFill=0;" edge="1" parent="IgG5niwhhBYyqKMsFp1a-204" source="IgG5niwhhBYyqKMsFp1a-159" target="IgG5niwhhBYyqKMsFp1a-149">
          <mxGeometry relative="1" as="geometry">
            <mxPoint x="160" y="60" as="sourcePoint" />
          </mxGeometry>
        </mxCell>
        <mxCell id="IgG5niwhhBYyqKMsFp1a-158" value="creates" style="edgeLabel;html=1;align=center;verticalAlign=middle;resizable=0;points=[];" vertex="1" connectable="0" parent="IgG5niwhhBYyqKMsFp1a-157">
          <mxGeometry x="0.3143" y="-3" relative="1" as="geometry">
            <mxPoint x="3" y="-15" as="offset" />
          </mxGeometry>
        </mxCell>
        <mxCell id="IgG5niwhhBYyqKMsFp1a-159" value="&lt;p style=&quot;margin:0px;margin-top:4px;text-align:center;&quot;&gt;Main&lt;/p&gt;&lt;div style=&quot;height:2px;&quot;&gt;&lt;hr&gt;&lt;hr&gt;&amp;nbsp;&lt;/div&gt;" style="verticalAlign=top;align=left;overflow=fill;fontSize=12;fontFamily=Helvetica;html=1;whiteSpace=wrap;fontStyle=0;container=0;fillColor=#d5e8d4;strokeColor=#82b366;" vertex="1" parent="IgG5niwhhBYyqKMsFp1a-204">
          <mxGeometry x="220" y="40" width="160" height="40" as="geometry" />
        </mxCell>
        <mxCell id="IgG5niwhhBYyqKMsFp1a-205" value="" style="group" vertex="1" connectable="0" parent="1">
          <mxGeometry x="840" y="630" width="400" height="280" as="geometry" />
        </mxCell>
        <mxCell id="IgG5niwhhBYyqKMsFp1a-130" value="&lt;span style=&quot;font-weight: 400;&quot;&gt;customer&lt;/span&gt;" style="shape=folder;fontStyle=1;tabWidth=80;tabHeight=20;tabPosition=left;html=1;boundedLbl=1;labelInHeader=1;container=0;collapsible=0;recursiveResize=0;whiteSpace=wrap;fillColor=default;" vertex="1" parent="IgG5niwhhBYyqKMsFp1a-205">
          <mxGeometry width="400" height="280" as="geometry" />
        </mxCell>
        <mxCell id="IgG5niwhhBYyqKMsFp1a-77" value="&lt;p style=&quot;margin:0px;margin-top:4px;text-align:center;&quot;&gt;CustomerView&lt;/p&gt;&lt;div style=&quot;height:2px;&quot;&gt;&lt;hr&gt;&lt;hr&gt;&amp;nbsp;&lt;/div&gt;" style="verticalAlign=top;align=left;overflow=fill;fontSize=12;fontFamily=Helvetica;html=1;whiteSpace=wrap;fontStyle=0;container=0;fillColor=#cce5ff;strokeColor=#36393d;" vertex="1" parent="IgG5niwhhBYyqKMsFp1a-205">
          <mxGeometry x="220" y="220" width="160" height="40" as="geometry" />
        </mxCell>
        <mxCell id="IgG5niwhhBYyqKMsFp1a-79" value="&lt;p style=&quot;margin:0px;margin-top:4px;text-align:center;&quot;&gt;CustomerModel&lt;/p&gt;&lt;div style=&quot;height:2px;&quot;&gt;&lt;hr&gt;&lt;hr&gt;&amp;nbsp;&lt;/div&gt;" style="verticalAlign=top;align=left;overflow=fill;fontSize=12;fontFamily=Helvetica;html=1;whiteSpace=wrap;fontStyle=0;container=0;fillColor=#eeeeee;strokeColor=#36393d;" vertex="1" parent="IgG5niwhhBYyqKMsFp1a-205">
          <mxGeometry x="20" y="220" width="160" height="40" as="geometry" />
        </mxCell>
        <mxCell id="IgG5niwhhBYyqKMsFp1a-90" style="rounded=0;orthogonalLoop=1;jettySize=auto;html=1;entryX=0.5;entryY=0;entryDx=0;entryDy=0;exitX=0.117;exitY=1.027;exitDx=0;exitDy=0;endArrow=open;endFill=0;exitPerimeter=0;" edge="1" parent="IgG5niwhhBYyqKMsFp1a-205" source="IgG5niwhhBYyqKMsFp1a-80" target="IgG5niwhhBYyqKMsFp1a-79">
          <mxGeometry relative="1" as="geometry" />
        </mxCell>
        <mxCell id="IgG5niwhhBYyqKMsFp1a-133" value="change state" style="edgeLabel;html=1;align=center;verticalAlign=middle;resizable=0;points=[];container=0;" vertex="1" connectable="0" parent="IgG5niwhhBYyqKMsFp1a-90">
          <mxGeometry x="0.4144" relative="1" as="geometry">
            <mxPoint x="9" y="-36" as="offset" />
          </mxGeometry>
        </mxCell>
        <mxCell id="IgG5niwhhBYyqKMsFp1a-92" style="rounded=0;orthogonalLoop=1;jettySize=auto;html=1;entryX=0.25;entryY=0;entryDx=0;entryDy=0;endArrow=open;endFill=0;exitX=0.7;exitY=1.065;exitDx=0;exitDy=0;exitPerimeter=0;" edge="1" parent="IgG5niwhhBYyqKMsFp1a-205" source="IgG5niwhhBYyqKMsFp1a-80" target="IgG5niwhhBYyqKMsFp1a-77">
          <mxGeometry relative="1" as="geometry">
            <mxPoint x="150" y="150" as="sourcePoint" />
          </mxGeometry>
        </mxCell>
        <mxCell id="IgG5niwhhBYyqKMsFp1a-123" value="updates" style="edgeLabel;html=1;align=center;verticalAlign=middle;resizable=0;points=[];container=0;" vertex="1" connectable="0" parent="IgG5niwhhBYyqKMsFp1a-92">
          <mxGeometry x="-0.3734" relative="1" as="geometry">
            <mxPoint x="-6" y="-6" as="offset" />
          </mxGeometry>
        </mxCell>
        <mxCell id="IgG5niwhhBYyqKMsFp1a-80" value="&lt;p style=&quot;margin:0px;margin-top:4px;text-align:center;&quot;&gt;CustomerController&lt;/p&gt;&lt;div style=&quot;height:2px;&quot;&gt;&lt;hr&gt;&lt;hr&gt;&amp;nbsp;&lt;/div&gt;" style="verticalAlign=top;align=left;overflow=fill;fontSize=12;fontFamily=Helvetica;html=1;whiteSpace=wrap;fontStyle=0;container=0;fillColor=#dae8fc;strokeColor=#6c8ebf;" vertex="1" parent="IgG5niwhhBYyqKMsFp1a-205">
          <mxGeometry x="120" y="100" width="160" height="40" as="geometry" />
        </mxCell>
        <mxCell id="IgG5niwhhBYyqKMsFp1a-93" style="rounded=0;orthogonalLoop=1;jettySize=auto;html=1;exitX=0.5;exitY=0;exitDx=0;exitDy=0;endArrow=open;endFill=0;entryX=0.884;entryY=0.989;entryDx=0;entryDy=0;entryPerimeter=0;" edge="1" parent="IgG5niwhhBYyqKMsFp1a-205" source="IgG5niwhhBYyqKMsFp1a-77" target="IgG5niwhhBYyqKMsFp1a-80">
          <mxGeometry relative="1" as="geometry">
            <mxPoint x="170" y="130" as="targetPoint" />
          </mxGeometry>
        </mxCell>
        <mxCell id="IgG5niwhhBYyqKMsFp1a-131" value="user input" style="edgeLabel;html=1;align=center;verticalAlign=middle;resizable=0;points=[];container=0;" vertex="1" connectable="0" parent="IgG5niwhhBYyqKMsFp1a-93">
          <mxGeometry x="0.2597" y="-1" relative="1" as="geometry">
            <mxPoint x="23" y="34" as="offset" />
          </mxGeometry>
        </mxCell>
        <mxCell id="IgG5niwhhBYyqKMsFp1a-91" style="rounded=0;orthogonalLoop=1;jettySize=auto;html=1;entryX=0.302;entryY=0.989;entryDx=0;entryDy=0;exitX=0.75;exitY=0;exitDx=0;exitDy=0;endArrow=open;endFill=0;entryPerimeter=0;" edge="1" parent="IgG5niwhhBYyqKMsFp1a-205" source="IgG5niwhhBYyqKMsFp1a-79" target="IgG5niwhhBYyqKMsFp1a-80">
          <mxGeometry relative="1" as="geometry" />
        </mxCell>
        <mxCell id="IgG5niwhhBYyqKMsFp1a-111" value="returns data" style="edgeLabel;html=1;align=center;verticalAlign=middle;resizable=0;points=[];container=0;" vertex="1" connectable="0" parent="IgG5niwhhBYyqKMsFp1a-91">
          <mxGeometry x="0.2461" relative="1" as="geometry">
            <mxPoint x="-11" y="34" as="offset" />
          </mxGeometry>
        </mxCell>
        <mxCell id="IgG5niwhhBYyqKMsFp1a-136" style="edgeStyle=orthogonalEdgeStyle;rounded=0;orthogonalLoop=1;jettySize=auto;html=1;exitX=0.75;exitY=1;exitDx=0;exitDy=0;entryX=0.75;entryY=0;entryDx=0;entryDy=0;endArrow=open;endFill=0;" edge="1" parent="IgG5niwhhBYyqKMsFp1a-205" source="IgG5niwhhBYyqKMsFp1a-135" target="IgG5niwhhBYyqKMsFp1a-77">
          <mxGeometry relative="1" as="geometry" />
        </mxCell>
        <mxCell id="IgG5niwhhBYyqKMsFp1a-137" value="creates" style="edgeLabel;html=1;align=center;verticalAlign=middle;resizable=0;points=[];" vertex="1" connectable="0" parent="IgG5niwhhBYyqKMsFp1a-136">
          <mxGeometry x="-0.216" relative="1" as="geometry">
            <mxPoint x="1" y="-35" as="offset" />
          </mxGeometry>
        </mxCell>
        <mxCell id="IgG5niwhhBYyqKMsFp1a-138" style="edgeStyle=orthogonalEdgeStyle;rounded=0;orthogonalLoop=1;jettySize=auto;html=1;entryX=0.25;entryY=0;entryDx=0;entryDy=0;endArrow=open;endFill=0;" edge="1" parent="IgG5niwhhBYyqKMsFp1a-205" source="IgG5niwhhBYyqKMsFp1a-135" target="IgG5niwhhBYyqKMsFp1a-79">
          <mxGeometry relative="1" as="geometry" />
        </mxCell>
        <mxCell id="IgG5niwhhBYyqKMsFp1a-140" style="edgeStyle=orthogonalEdgeStyle;rounded=0;orthogonalLoop=1;jettySize=auto;html=1;entryX=0.25;entryY=0;entryDx=0;entryDy=0;exitX=0;exitY=0.5;exitDx=0;exitDy=0;endArrow=open;endFill=0;" edge="1" parent="IgG5niwhhBYyqKMsFp1a-205" source="IgG5niwhhBYyqKMsFp1a-135" target="IgG5niwhhBYyqKMsFp1a-80">
          <mxGeometry relative="1" as="geometry">
            <mxPoint x="160" y="60" as="sourcePoint" />
          </mxGeometry>
        </mxCell>
        <mxCell id="IgG5niwhhBYyqKMsFp1a-141" value="creates" style="edgeLabel;html=1;align=center;verticalAlign=middle;resizable=0;points=[];" vertex="1" connectable="0" parent="IgG5niwhhBYyqKMsFp1a-140">
          <mxGeometry x="0.3143" y="-3" relative="1" as="geometry">
            <mxPoint x="3" y="-15" as="offset" />
          </mxGeometry>
        </mxCell>
        <mxCell id="IgG5niwhhBYyqKMsFp1a-135" value="&lt;p style=&quot;margin:0px;margin-top:4px;text-align:center;&quot;&gt;CustomerStation&lt;/p&gt;&lt;div style=&quot;height:2px;&quot;&gt;&lt;hr&gt;&lt;hr&gt;&amp;nbsp;&lt;/div&gt;" style="verticalAlign=top;align=left;overflow=fill;fontSize=12;fontFamily=Helvetica;html=1;whiteSpace=wrap;fontStyle=0;container=0;fillColor=#d5e8d4;strokeColor=#82b366;" vertex="1" parent="IgG5niwhhBYyqKMsFp1a-205">
          <mxGeometry x="220" y="40" width="160" height="40" as="geometry" />
        </mxCell>
        <mxCell id="IgG5niwhhBYyqKMsFp1a-26" value="&lt;span style=&quot;font-weight: normal;&quot;&gt;payment&lt;/span&gt;" style="shape=folder;fontStyle=1;tabWidth=80;tabHeight=20;tabPosition=left;html=1;boundedLbl=1;labelInHeader=1;container=1;collapsible=0;recursiveResize=0;whiteSpace=wrap;fillColor=default;" vertex="1" parent="1">
          <mxGeometry x="360" y="440" width="360" height="200" as="geometry" />
        </mxCell>
        <mxCell id="IgG5niwhhBYyqKMsFp1a-28" value="&amp;lt;&amp;lt;interface&amp;gt;&amp;gt;&lt;br&gt;PaymentListener" style="html=1;whiteSpace=wrap;fillColor=#ffe6cc;strokeColor=#d79b00;" vertex="1" parent="IgG5niwhhBYyqKMsFp1a-26">
          <mxGeometry x="240" y="40" width="100" height="40" as="geometry" />
        </mxCell>
        <mxCell id="IgG5niwhhBYyqKMsFp1a-100" style="edgeStyle=orthogonalEdgeStyle;rounded=0;orthogonalLoop=1;jettySize=auto;html=1;entryX=0.5;entryY=1;entryDx=0;entryDy=0;endArrow=block;endFill=0;endSize=10;startSize=10;exitX=0.25;exitY=0;exitDx=0;exitDy=0;" edge="1" parent="IgG5niwhhBYyqKMsFp1a-26" source="IgG5niwhhBYyqKMsFp1a-177" target="IgG5niwhhBYyqKMsFp1a-174">
          <mxGeometry relative="1" as="geometry">
            <mxPoint x="55" y="130" as="sourcePoint" />
            <mxPoint x="55" y="90" as="targetPoint" />
          </mxGeometry>
        </mxCell>
        <mxCell id="IgG5niwhhBYyqKMsFp1a-175" style="edgeStyle=orthogonalEdgeStyle;rounded=0;orthogonalLoop=1;jettySize=auto;html=1;endArrow=open;endFill=0;exitX=1;exitY=0.5;exitDx=0;exitDy=0;entryX=0;entryY=0.5;entryDx=0;entryDy=0;" edge="1" parent="IgG5niwhhBYyqKMsFp1a-26" source="IgG5niwhhBYyqKMsFp1a-174" target="IgG5niwhhBYyqKMsFp1a-28">
          <mxGeometry relative="1" as="geometry">
            <mxPoint x="90" y="156" as="sourcePoint" />
            <mxPoint x="200" y="50" as="targetPoint" />
          </mxGeometry>
        </mxCell>
        <mxCell id="IgG5niwhhBYyqKMsFp1a-176" value="&amp;lt;&amp;lt;bind T&amp;gt;&amp;gt;" style="edgeLabel;html=1;align=center;verticalAlign=middle;resizable=0;points=[];" vertex="1" connectable="0" parent="IgG5niwhhBYyqKMsFp1a-175">
          <mxGeometry x="-0.2724" y="-1" relative="1" as="geometry">
            <mxPoint x="8" y="-10" as="offset" />
          </mxGeometry>
        </mxCell>
        <mxCell id="IgG5niwhhBYyqKMsFp1a-174" value="&lt;p style=&quot;margin:0px;margin-top:4px;text-align:center;&quot;&gt;PaymentFacade&lt;/p&gt;&lt;div style=&quot;height:2px;&quot;&gt;&lt;hr&gt;&lt;hr&gt;&amp;nbsp;&lt;/div&gt;" style="verticalAlign=top;align=left;overflow=fill;fontSize=12;fontFamily=Helvetica;html=1;whiteSpace=wrap;fontStyle=0;container=0;fillColor=#eeeeee;strokeColor=#36393d;" vertex="1" parent="IgG5niwhhBYyqKMsFp1a-26">
          <mxGeometry x="10" y="40" width="160" height="40" as="geometry" />
        </mxCell>
        <mxCell id="IgG5niwhhBYyqKMsFp1a-177" value="&lt;p style=&quot;margin:0px;margin-top:4px;text-align:center;&quot;&gt;~ WithCoin&lt;/p&gt;&lt;div style=&quot;height:2px;&quot;&gt;&lt;hr&gt;&lt;hr&gt;&amp;nbsp;&lt;/div&gt;" style="verticalAlign=top;align=left;overflow=fill;fontSize=12;fontFamily=Helvetica;html=1;whiteSpace=wrap;fontStyle=0;container=0;" vertex="1" parent="IgG5niwhhBYyqKMsFp1a-26">
          <mxGeometry x="20" y="140" width="100" height="40" as="geometry" />
        </mxCell>
        <mxCell id="IgG5niwhhBYyqKMsFp1a-178" value="&lt;p style=&quot;margin:0px;margin-top:4px;text-align:center;&quot;&gt;~ WithBill&lt;/p&gt;&lt;div style=&quot;height:2px;&quot;&gt;&lt;hr&gt;&lt;hr&gt;&amp;nbsp;&lt;/div&gt;" style="verticalAlign=top;align=left;overflow=fill;fontSize=12;fontFamily=Helvetica;html=1;whiteSpace=wrap;fontStyle=0;container=0;" vertex="1" parent="IgG5niwhhBYyqKMsFp1a-26">
          <mxGeometry x="130" y="140" width="100" height="40" as="geometry" />
        </mxCell>
        <mxCell id="IgG5niwhhBYyqKMsFp1a-179" value="&lt;p style=&quot;margin:0px;margin-top:4px;text-align:center;&quot;&gt;~ WithCard&lt;/p&gt;&lt;div style=&quot;height:2px;&quot;&gt;&lt;hr&gt;&lt;hr&gt;&amp;nbsp;&lt;/div&gt;" style="verticalAlign=top;align=left;overflow=fill;fontSize=12;fontFamily=Helvetica;html=1;whiteSpace=wrap;fontStyle=0;container=0;" vertex="1" parent="IgG5niwhhBYyqKMsFp1a-26">
          <mxGeometry x="240" y="140" width="100" height="40" as="geometry" />
        </mxCell>
        <mxCell id="IgG5niwhhBYyqKMsFp1a-180" style="edgeStyle=orthogonalEdgeStyle;rounded=0;orthogonalLoop=1;jettySize=auto;html=1;entryX=0.5;entryY=1;entryDx=0;entryDy=0;endArrow=block;endFill=0;endSize=10;startSize=10;exitX=0.5;exitY=0;exitDx=0;exitDy=0;" edge="1" parent="IgG5niwhhBYyqKMsFp1a-26" source="IgG5niwhhBYyqKMsFp1a-178" target="IgG5niwhhBYyqKMsFp1a-174">
          <mxGeometry relative="1" as="geometry">
            <mxPoint x="65" y="140" as="sourcePoint" />
            <mxPoint x="100" y="90" as="targetPoint" />
          </mxGeometry>
        </mxCell>
        <mxCell id="IgG5niwhhBYyqKMsFp1a-181" style="edgeStyle=orthogonalEdgeStyle;rounded=0;orthogonalLoop=1;jettySize=auto;html=1;entryX=0.5;entryY=1;entryDx=0;entryDy=0;endArrow=block;endFill=0;endSize=10;startSize=10;exitX=0.5;exitY=0;exitDx=0;exitDy=0;" edge="1" parent="IgG5niwhhBYyqKMsFp1a-26" source="IgG5niwhhBYyqKMsFp1a-179" target="IgG5niwhhBYyqKMsFp1a-174">
          <mxGeometry relative="1" as="geometry">
            <mxPoint x="165" y="140" as="sourcePoint" />
            <mxPoint x="100" y="90" as="targetPoint" />
          </mxGeometry>
        </mxCell>
        <mxCell id="IgG5niwhhBYyqKMsFp1a-71" value="&lt;span style=&quot;font-weight: normal;&quot;&gt;bagging&lt;/span&gt;" style="shape=folder;fontStyle=1;tabWidth=80;tabHeight=20;tabPosition=left;html=1;boundedLbl=1;labelInHeader=1;container=1;collapsible=0;recursiveResize=0;whiteSpace=wrap;" vertex="1" parent="1">
          <mxGeometry x="360" y="1040" width="360" height="100" as="geometry" />
        </mxCell>
        <mxCell id="IgG5niwhhBYyqKMsFp1a-85" style="edgeStyle=orthogonalEdgeStyle;rounded=0;orthogonalLoop=1;jettySize=auto;html=1;entryX=0;entryY=0.5;entryDx=0;entryDy=0;endArrow=open;endFill=0;exitX=1;exitY=0.5;exitDx=0;exitDy=0;" edge="1" parent="IgG5niwhhBYyqKMsFp1a-71" source="IgG5niwhhBYyqKMsFp1a-170" target="IgG5niwhhBYyqKMsFp1a-74">
          <mxGeometry relative="1" as="geometry">
            <mxPoint x="190" y="60" as="sourcePoint" />
          </mxGeometry>
        </mxCell>
        <mxCell id="IgG5niwhhBYyqKMsFp1a-171" value="&amp;lt;&amp;lt;bind T&amp;gt;&amp;gt;" style="edgeLabel;html=1;align=center;verticalAlign=middle;resizable=0;points=[];" vertex="1" connectable="0" parent="IgG5niwhhBYyqKMsFp1a-85">
          <mxGeometry x="-0.2724" y="-1" relative="1" as="geometry">
            <mxPoint x="7" y="-10" as="offset" />
          </mxGeometry>
        </mxCell>
        <mxCell id="IgG5niwhhBYyqKMsFp1a-74" value="&amp;lt;&amp;lt;interface&amp;gt;&amp;gt;&lt;br&gt;BaggingListener" style="html=1;whiteSpace=wrap;fillColor=#ffe6cc;strokeColor=#d79b00;" vertex="1" parent="IgG5niwhhBYyqKMsFp1a-71">
          <mxGeometry x="240" y="40" width="100" height="40" as="geometry" />
        </mxCell>
        <mxCell id="IgG5niwhhBYyqKMsFp1a-170" value="&lt;p style=&quot;margin:0px;margin-top:4px;text-align:center;&quot;&gt;BaggingFacade&lt;/p&gt;&lt;div style=&quot;height:2px;&quot;&gt;&lt;hr&gt;&lt;hr&gt;&amp;nbsp;&lt;/div&gt;" style="verticalAlign=top;align=left;overflow=fill;fontSize=12;fontFamily=Helvetica;html=1;whiteSpace=wrap;fontStyle=0;container=0;fillColor=#eeeeee;strokeColor=#36393d;" vertex="1" parent="IgG5niwhhBYyqKMsFp1a-71">
          <mxGeometry x="10" y="40" width="160" height="40" as="geometry" />
        </mxCell>
        <mxCell id="IgG5niwhhBYyqKMsFp1a-86" value="" style="endArrow=block;dashed=1;html=1;rounded=0;entryX=1;entryY=0.5;entryDx=0;entryDy=0;edgeStyle=orthogonalEdgeStyle;endFill=0;endSize=10;startSize=10;exitX=0;exitY=0.5;exitDx=0;exitDy=0;" edge="1" parent="1" source="IgG5niwhhBYyqKMsFp1a-80" target="IgG5niwhhBYyqKMsFp1a-28">
          <mxGeometry width="50" height="50" relative="1" as="geometry">
            <mxPoint x="760" y="680" as="sourcePoint" />
            <mxPoint x="310" y="540" as="targetPoint" />
            <Array as="points">
              <mxPoint x="780" y="750" />
              <mxPoint x="780" y="500" />
            </Array>
          </mxGeometry>
        </mxCell>
        <mxCell id="IgG5niwhhBYyqKMsFp1a-94" value="&lt;span style=&quot;font-weight: normal;&quot;&gt;receipt&lt;/span&gt;" style="shape=folder;fontStyle=1;tabWidth=80;tabHeight=19;tabPosition=left;html=1;boundedLbl=1;labelInHeader=1;container=1;collapsible=0;recursiveResize=0;whiteSpace=wrap;fillColor=default;" vertex="1" parent="1">
          <mxGeometry x="360" y="720" width="360" height="89" as="geometry" />
        </mxCell>
        <mxCell id="IgG5niwhhBYyqKMsFp1a-97" value="&amp;lt;&amp;lt;interface&amp;gt;&amp;gt;&lt;br&gt;ReceiptListener" style="html=1;whiteSpace=wrap;fillColor=#ffe6cc;strokeColor=#d79b00;" vertex="1" parent="IgG5niwhhBYyqKMsFp1a-94">
          <mxGeometry x="240" y="34.5" width="100" height="40" as="geometry" />
        </mxCell>
        <mxCell id="IgG5niwhhBYyqKMsFp1a-160" value="&lt;p style=&quot;margin:0px;margin-top:4px;text-align:center;&quot;&gt;ReceiptFacade&lt;/p&gt;&lt;div style=&quot;height:2px;&quot;&gt;&lt;hr&gt;&lt;hr&gt;&amp;nbsp;&lt;/div&gt;" style="verticalAlign=top;align=left;overflow=fill;fontSize=12;fontFamily=Helvetica;html=1;whiteSpace=wrap;fontStyle=0;container=0;fillColor=#eeeeee;strokeColor=#36393d;" vertex="1" parent="IgG5niwhhBYyqKMsFp1a-94">
          <mxGeometry x="10" y="34.5" width="160" height="40" as="geometry" />
        </mxCell>
        <mxCell id="IgG5niwhhBYyqKMsFp1a-172" style="edgeStyle=orthogonalEdgeStyle;rounded=0;orthogonalLoop=1;jettySize=auto;html=1;endArrow=open;endFill=0;exitX=1;exitY=0.5;exitDx=0;exitDy=0;entryX=0;entryY=0.5;entryDx=0;entryDy=0;" edge="1" parent="IgG5niwhhBYyqKMsFp1a-94" source="IgG5niwhhBYyqKMsFp1a-160" target="IgG5niwhhBYyqKMsFp1a-97">
          <mxGeometry relative="1" as="geometry">
            <mxPoint x="370" y="68.94000000000005" as="sourcePoint" />
            <mxPoint x="450" y="78.94000000000005" as="targetPoint" />
          </mxGeometry>
        </mxCell>
        <mxCell id="IgG5niwhhBYyqKMsFp1a-173" value="&lt;font style=&quot;font-size: 11px;&quot;&gt;&amp;lt;&amp;lt;bind T&amp;gt;&amp;gt;&lt;/font&gt;" style="edgeLabel;html=1;align=center;verticalAlign=middle;resizable=0;points=[];" vertex="1" connectable="0" parent="IgG5niwhhBYyqKMsFp1a-172">
          <mxGeometry x="-0.2724" y="-1" relative="1" as="geometry">
            <mxPoint x="7" y="-10" as="offset" />
          </mxGeometry>
        </mxCell>
        <mxCell id="IgG5niwhhBYyqKMsFp1a-161" style="rounded=0;orthogonalLoop=1;jettySize=auto;html=1;endArrow=open;endFill=0;startArrow=none;startFill=0;startSize=12;entryX=0.5;entryY=0;entryDx=0;entryDy=0;exitX=0.5;exitY=1;exitDx=0;exitDy=0;edgeStyle=orthogonalEdgeStyle;" edge="1" parent="1" source="IgG5niwhhBYyqKMsFp1a-149" target="IgG5niwhhBYyqKMsFp1a-135">
          <mxGeometry relative="1" as="geometry">
            <mxPoint x="1180" y="580" as="targetPoint" />
            <Array as="points">
              <mxPoint x="1040" y="610" />
              <mxPoint x="1140" y="610" />
            </Array>
          </mxGeometry>
        </mxCell>
        <mxCell id="IgG5niwhhBYyqKMsFp1a-162" value="- stationsAvailable" style="edgeLabel;html=1;align=center;verticalAlign=middle;resizable=0;points=[];" vertex="1" connectable="0" parent="IgG5niwhhBYyqKMsFp1a-161">
          <mxGeometry x="0.5245" y="1" relative="1" as="geometry">
            <mxPoint x="-24" y="-9" as="offset" />
          </mxGeometry>
        </mxCell>
        <mxCell id="IgG5niwhhBYyqKMsFp1a-190" value="&lt;span style=&quot;font-weight: normal;&quot;&gt;item&lt;/span&gt;" style="shape=folder;fontStyle=1;tabWidth=80;tabHeight=20;tabPosition=left;html=1;boundedLbl=1;labelInHeader=1;container=1;collapsible=0;recursiveResize=0;whiteSpace=wrap;fillColor=default;" vertex="1" parent="1">
          <mxGeometry x="840" y="980" width="430" height="200" as="geometry" />
        </mxCell>
        <mxCell id="IgG5niwhhBYyqKMsFp1a-191" value="&amp;lt;&amp;lt;interface&amp;gt;&amp;gt;&lt;br&gt;ItemListener" style="html=1;whiteSpace=wrap;fillColor=#ffe6cc;strokeColor=#d79b00;" vertex="1" parent="IgG5niwhhBYyqKMsFp1a-190">
          <mxGeometry x="315" y="40" width="100" height="40" as="geometry" />
        </mxCell>
        <mxCell id="IgG5niwhhBYyqKMsFp1a-192" style="edgeStyle=orthogonalEdgeStyle;rounded=0;orthogonalLoop=1;jettySize=auto;html=1;entryX=0.75;entryY=1;entryDx=0;entryDy=0;endArrow=block;endFill=0;endSize=10;startSize=10;exitX=0.5;exitY=0;exitDx=0;exitDy=0;" edge="1" parent="IgG5niwhhBYyqKMsFp1a-190" source="IgG5niwhhBYyqKMsFp1a-196" target="IgG5niwhhBYyqKMsFp1a-195">
          <mxGeometry relative="1" as="geometry">
            <mxPoint x="55" y="130" as="sourcePoint" />
            <mxPoint x="55" y="90" as="targetPoint" />
          </mxGeometry>
        </mxCell>
        <mxCell id="IgG5niwhhBYyqKMsFp1a-193" style="edgeStyle=orthogonalEdgeStyle;rounded=0;orthogonalLoop=1;jettySize=auto;html=1;endArrow=open;endFill=0;exitX=1;exitY=0.5;exitDx=0;exitDy=0;entryX=0;entryY=0.5;entryDx=0;entryDy=0;" edge="1" parent="IgG5niwhhBYyqKMsFp1a-190" source="IgG5niwhhBYyqKMsFp1a-195" target="IgG5niwhhBYyqKMsFp1a-191">
          <mxGeometry relative="1" as="geometry">
            <mxPoint x="180" y="156" as="sourcePoint" />
            <mxPoint x="290" y="50" as="targetPoint" />
          </mxGeometry>
        </mxCell>
        <mxCell id="IgG5niwhhBYyqKMsFp1a-194" value="&amp;lt;&amp;lt;bind T&amp;gt;&amp;gt;" style="edgeLabel;html=1;align=center;verticalAlign=middle;resizable=0;points=[];" vertex="1" connectable="0" parent="IgG5niwhhBYyqKMsFp1a-193">
          <mxGeometry x="-0.2724" y="-1" relative="1" as="geometry">
            <mxPoint x="7" y="-10" as="offset" />
          </mxGeometry>
        </mxCell>
        <mxCell id="IgG5niwhhBYyqKMsFp1a-195" value="&lt;p style=&quot;margin:0px;margin-top:4px;text-align:center;&quot;&gt;ItemFacade&lt;/p&gt;&lt;div style=&quot;height:2px;&quot;&gt;&lt;hr&gt;&lt;hr&gt;&amp;nbsp;&lt;/div&gt;" style="verticalAlign=top;align=left;overflow=fill;fontSize=12;fontFamily=Helvetica;html=1;whiteSpace=wrap;fontStyle=0;container=0;fillColor=#eeeeee;strokeColor=#36393d;" vertex="1" parent="IgG5niwhhBYyqKMsFp1a-190">
          <mxGeometry x="90" y="40" width="160" height="40" as="geometry" />
        </mxCell>
        <mxCell id="IgG5niwhhBYyqKMsFp1a-196" value="&lt;p style=&quot;margin:0px;margin-top:4px;text-align:center;&quot;&gt;~ ByScanning&lt;/p&gt;&lt;div style=&quot;height:2px;&quot;&gt;&lt;hr&gt;&lt;hr&gt;&amp;nbsp;&lt;/div&gt;" style="verticalAlign=top;align=left;overflow=fill;fontSize=12;fontFamily=Helvetica;html=1;whiteSpace=wrap;fontStyle=0;container=0;" vertex="1" parent="IgG5niwhhBYyqKMsFp1a-190">
          <mxGeometry x="20" y="140" width="90" height="40" as="geometry" />
        </mxCell>
        <mxCell id="IgG5niwhhBYyqKMsFp1a-197" value="&lt;p style=&quot;margin:0px;margin-top:4px;text-align:center;&quot;&gt;~ ByPLUCode&lt;/p&gt;&lt;div style=&quot;height:2px;&quot;&gt;&lt;hr&gt;&lt;hr&gt;&amp;nbsp;&lt;/div&gt;" style="verticalAlign=top;align=left;overflow=fill;fontSize=12;fontFamily=Helvetica;html=1;whiteSpace=wrap;fontStyle=0;container=0;" vertex="1" parent="IgG5niwhhBYyqKMsFp1a-190">
          <mxGeometry x="120" y="140" width="90" height="40" as="geometry" />
        </mxCell>
        <mxCell id="IgG5niwhhBYyqKMsFp1a-198" value="&lt;p style=&quot;margin:0px;margin-top:4px;text-align:center;&quot;&gt;~ ByTextSearch&lt;/p&gt;&lt;div style=&quot;height:2px;&quot;&gt;&lt;hr&gt;&lt;hr&gt;&amp;nbsp;&lt;/div&gt;" style="verticalAlign=top;align=left;overflow=fill;fontSize=12;fontFamily=Helvetica;html=1;whiteSpace=wrap;fontStyle=0;container=0;" vertex="1" parent="IgG5niwhhBYyqKMsFp1a-190">
          <mxGeometry x="220" y="140" width="90" height="40" as="geometry" />
        </mxCell>
        <mxCell id="IgG5niwhhBYyqKMsFp1a-199" style="edgeStyle=orthogonalEdgeStyle;rounded=0;orthogonalLoop=1;jettySize=auto;html=1;entryX=0.75;entryY=1;entryDx=0;entryDy=0;endArrow=block;endFill=0;endSize=10;startSize=10;exitX=0.5;exitY=0;exitDx=0;exitDy=0;" edge="1" parent="IgG5niwhhBYyqKMsFp1a-190" source="IgG5niwhhBYyqKMsFp1a-197" target="IgG5niwhhBYyqKMsFp1a-195">
          <mxGeometry relative="1" as="geometry">
            <mxPoint x="65" y="140" as="sourcePoint" />
            <mxPoint x="100" y="90" as="targetPoint" />
          </mxGeometry>
        </mxCell>
        <mxCell id="IgG5niwhhBYyqKMsFp1a-200" style="edgeStyle=orthogonalEdgeStyle;rounded=0;orthogonalLoop=1;jettySize=auto;html=1;entryX=0.75;entryY=1;entryDx=0;entryDy=0;endArrow=block;endFill=0;endSize=10;startSize=10;exitX=0.5;exitY=0;exitDx=0;exitDy=0;" edge="1" parent="IgG5niwhhBYyqKMsFp1a-190" source="IgG5niwhhBYyqKMsFp1a-198" target="IgG5niwhhBYyqKMsFp1a-195">
          <mxGeometry relative="1" as="geometry">
            <mxPoint x="165" y="140" as="sourcePoint" />
            <mxPoint x="100" y="90" as="targetPoint" />
          </mxGeometry>
        </mxCell>
        <mxCell id="IgG5niwhhBYyqKMsFp1a-201" value="&lt;p style=&quot;margin:0px;margin-top:4px;text-align:center;&quot;&gt;~ ByBrowsing&lt;/p&gt;&lt;div style=&quot;height:2px;&quot;&gt;&lt;hr&gt;&lt;hr&gt;&amp;nbsp;&lt;/div&gt;" style="verticalAlign=top;align=left;overflow=fill;fontSize=12;fontFamily=Helvetica;html=1;whiteSpace=wrap;fontStyle=0;container=0;" vertex="1" parent="IgG5niwhhBYyqKMsFp1a-190">
          <mxGeometry x="320" y="140" width="90" height="40" as="geometry" />
        </mxCell>
        <mxCell id="IgG5niwhhBYyqKMsFp1a-202" style="edgeStyle=orthogonalEdgeStyle;rounded=0;orthogonalLoop=1;jettySize=auto;html=1;entryX=0.75;entryY=1;entryDx=0;entryDy=0;endArrow=block;endFill=0;endSize=10;startSize=10;exitX=0.5;exitY=0;exitDx=0;exitDy=0;" edge="1" parent="IgG5niwhhBYyqKMsFp1a-190" source="IgG5niwhhBYyqKMsFp1a-201" target="IgG5niwhhBYyqKMsFp1a-195">
          <mxGeometry relative="1" as="geometry">
            <mxPoint x="175" y="150" as="sourcePoint" />
            <mxPoint x="190" y="90" as="targetPoint" />
          </mxGeometry>
        </mxCell>
        <mxCell id="IgG5niwhhBYyqKMsFp1a-203" value="" style="group" vertex="1" connectable="0" parent="1">
          <mxGeometry x="360" y="309.94" width="180" height="100" as="geometry" />
        </mxCell>
        <mxCell id="IgG5niwhhBYyqKMsFp1a-167" value="&lt;p style=&quot;margin:0px;margin-top:4px;text-align:center;&quot;&gt;AbstractFacade&lt;/p&gt;&lt;div style=&quot;height:2px;&quot;&gt;&lt;br&gt;&lt;/div&gt;&lt;div style=&quot;height:2px;&quot;&gt;&lt;hr&gt;&amp;nbsp;- ArrayList&amp;lt;T&amp;gt;: listeners&lt;br&gt;&lt;hr&gt;&amp;nbsp;+ AbstractFacade(station)&lt;/div&gt;" style="verticalAlign=top;align=left;overflow=fill;fontSize=12;fontFamily=Helvetica;html=1;whiteSpace=wrap;fontStyle=0;container=0;fillColor=#eeeeee;strokeColor=#36393d;" vertex="1" parent="IgG5niwhhBYyqKMsFp1a-203">
          <mxGeometry y="10" width="160" height="90" as="geometry" />
        </mxCell>
        <mxCell id="IgG5niwhhBYyqKMsFp1a-168" value="T" style="rounded=0;whiteSpace=wrap;html=1;fillColor=default;dashed=1;" vertex="1" parent="IgG5niwhhBYyqKMsFp1a-203">
          <mxGeometry x="140" width="40" height="20" as="geometry" />
        </mxCell>
        <mxCell id="IgG5niwhhBYyqKMsFp1a-207" value="&lt;div style=&quot;text-align: center;&quot;&gt;&lt;span style=&quot;background-color: initial;&quot;&gt;&amp;lt;&amp;lt;interface&amp;gt;&amp;gt;&lt;/span&gt;&lt;/div&gt;&lt;div style=&quot;text-align: center;&quot;&gt;&lt;span style=&quot;background-color: initial;&quot;&gt;AbstractListener&lt;/span&gt;&lt;/div&gt;&lt;hr&gt;&lt;hr&gt;&amp;nbsp;" style="verticalAlign=top;align=left;overflow=fill;html=1;whiteSpace=wrap;container=0;spacingTop=0;spacing=2;fillColor=#ffe6cc;strokeColor=#d79b00;" vertex="1" parent="1">
          <mxGeometry x="560" y="309.94" width="160" height="50" as="geometry" />
        </mxCell>
        <mxCell id="IgG5niwhhBYyqKMsFp1a-209" style="edgeStyle=orthogonalEdgeStyle;rounded=0;orthogonalLoop=1;jettySize=auto;html=1;exitX=0.5;exitY=0;exitDx=0;exitDy=0;dashed=1;endArrow=block;endFill=0;endSize=12;startSize=12;entryX=0.25;entryY=0;entryDx=0;entryDy=0;" edge="1" parent="1" source="IgG5niwhhBYyqKMsFp1a-168" target="IgG5niwhhBYyqKMsFp1a-207">
          <mxGeometry relative="1" as="geometry">
            <mxPoint x="570" y="199.94" as="targetPoint" />
            <Array as="points">
              <mxPoint x="520" y="280" />
              <mxPoint x="600" y="280" />
            </Array>
          </mxGeometry>
        </mxCell>
        <mxCell id="IgG5niwhhBYyqKMsFp1a-210" value="&lt;span style=&quot;font-weight: normal;&quot;&gt;membership&lt;/span&gt;" style="shape=folder;fontStyle=1;tabWidth=80;tabHeight=19;tabPosition=left;html=1;boundedLbl=1;labelInHeader=1;container=1;collapsible=0;recursiveResize=0;whiteSpace=wrap;fillColor=default;" vertex="1" parent="1">
          <mxGeometry x="360" y="880" width="380" height="89" as="geometry" />
        </mxCell>
        <mxCell id="IgG5niwhhBYyqKMsFp1a-211" value="&amp;lt;&amp;lt;interface&amp;gt;&amp;gt;&lt;br&gt;MembershipListener" style="html=1;whiteSpace=wrap;fillColor=#ffe6cc;strokeColor=#d79b00;" vertex="1" parent="IgG5niwhhBYyqKMsFp1a-210">
          <mxGeometry x="240" y="34.5" width="120" height="40" as="geometry" />
        </mxCell>
        <mxCell id="IgG5niwhhBYyqKMsFp1a-212" value="&lt;p style=&quot;margin:0px;margin-top:4px;text-align:center;&quot;&gt;MembershipFacade&lt;/p&gt;&lt;div style=&quot;height:2px;&quot;&gt;&lt;hr&gt;&lt;hr&gt;&amp;nbsp;&lt;/div&gt;" style="verticalAlign=top;align=left;overflow=fill;fontSize=12;fontFamily=Helvetica;html=1;whiteSpace=wrap;fontStyle=0;container=0;fillColor=#eeeeee;strokeColor=#36393d;" vertex="1" parent="IgG5niwhhBYyqKMsFp1a-210">
          <mxGeometry x="10" y="34.5" width="160" height="40" as="geometry" />
        </mxCell>
        <mxCell id="IgG5niwhhBYyqKMsFp1a-213" style="edgeStyle=orthogonalEdgeStyle;rounded=0;orthogonalLoop=1;jettySize=auto;html=1;endArrow=open;endFill=0;exitX=1;exitY=0.5;exitDx=0;exitDy=0;entryX=0;entryY=0.5;entryDx=0;entryDy=0;" edge="1" parent="IgG5niwhhBYyqKMsFp1a-210" source="IgG5niwhhBYyqKMsFp1a-212" target="IgG5niwhhBYyqKMsFp1a-211">
          <mxGeometry relative="1" as="geometry">
            <mxPoint x="370" y="68.94000000000005" as="sourcePoint" />
            <mxPoint x="450" y="78.94000000000005" as="targetPoint" />
          </mxGeometry>
        </mxCell>
        <mxCell id="IgG5niwhhBYyqKMsFp1a-214" value="&lt;font style=&quot;font-size: 11px;&quot;&gt;&amp;lt;&amp;lt;bind T&amp;gt;&amp;gt;&lt;/font&gt;" style="edgeLabel;html=1;align=center;verticalAlign=middle;resizable=0;points=[];" vertex="1" connectable="0" parent="IgG5niwhhBYyqKMsFp1a-213">
          <mxGeometry x="-0.2724" y="-1" relative="1" as="geometry">
            <mxPoint x="7" y="-10" as="offset" />
          </mxGeometry>
        </mxCell>
        <mxCell id="IgG5niwhhBYyqKMsFp1a-215" style="edgeStyle=orthogonalEdgeStyle;rounded=0;orthogonalLoop=1;jettySize=auto;html=1;endArrow=block;endFill=0;endSize=10;startSize=10;entryX=0;entryY=0.5;entryDx=0;entryDy=0;exitX=0;exitY=0.5;exitDx=0;exitDy=0;" edge="1" parent="1" source="IgG5niwhhBYyqKMsFp1a-160" target="IgG5niwhhBYyqKMsFp1a-167">
          <mxGeometry relative="1" as="geometry">
            <mxPoint x="240" y="810" as="sourcePoint" />
            <mxPoint x="300" y="320" as="targetPoint" />
          </mxGeometry>
        </mxCell>
        <mxCell id="IgG5niwhhBYyqKMsFp1a-216" style="edgeStyle=orthogonalEdgeStyle;rounded=0;orthogonalLoop=1;jettySize=auto;html=1;endArrow=block;endFill=0;endSize=10;startSize=10;entryX=0;entryY=0.5;entryDx=0;entryDy=0;exitX=0;exitY=0.5;exitDx=0;exitDy=0;" edge="1" parent="1" source="IgG5niwhhBYyqKMsFp1a-212" target="IgG5niwhhBYyqKMsFp1a-167">
          <mxGeometry relative="1" as="geometry">
            <mxPoint x="290" y="950" as="sourcePoint" />
            <mxPoint x="330" y="350" as="targetPoint" />
          </mxGeometry>
        </mxCell>
        <mxCell id="IgG5niwhhBYyqKMsFp1a-217" style="edgeStyle=orthogonalEdgeStyle;rounded=0;orthogonalLoop=1;jettySize=auto;html=1;endArrow=block;endFill=0;endSize=10;startSize=10;entryX=0;entryY=0.5;entryDx=0;entryDy=0;exitX=0;exitY=0.5;exitDx=0;exitDy=0;" edge="1" parent="1" source="IgG5niwhhBYyqKMsFp1a-174" target="IgG5niwhhBYyqKMsFp1a-167">
          <mxGeometry relative="1" as="geometry">
            <mxPoint x="200" y="390" as="sourcePoint" />
            <mxPoint x="290" y="390" as="targetPoint" />
          </mxGeometry>
        </mxCell>
        <mxCell id="IgG5niwhhBYyqKMsFp1a-218" style="edgeStyle=orthogonalEdgeStyle;rounded=0;orthogonalLoop=1;jettySize=auto;html=1;endArrow=block;endFill=0;endSize=10;startSize=10;entryX=0;entryY=0.5;entryDx=0;entryDy=0;exitX=0;exitY=0.5;exitDx=0;exitDy=0;" edge="1" parent="1" source="IgG5niwhhBYyqKMsFp1a-170" target="IgG5niwhhBYyqKMsFp1a-167">
          <mxGeometry relative="1" as="geometry">
            <mxPoint x="210" y="400" as="sourcePoint" />
            <mxPoint x="300" y="400" as="targetPoint" />
          </mxGeometry>
        </mxCell>
        <mxCell id="IgG5niwhhBYyqKMsFp1a-219" style="edgeStyle=orthogonalEdgeStyle;rounded=0;orthogonalLoop=1;jettySize=auto;html=1;endArrow=block;endFill=0;endSize=10;startSize=10;entryX=0;entryY=0.5;entryDx=0;entryDy=0;exitX=0;exitY=0.5;exitDx=0;exitDy=0;" edge="1" parent="1" source="IgG5niwhhBYyqKMsFp1a-195" target="IgG5niwhhBYyqKMsFp1a-167">
          <mxGeometry relative="1" as="geometry">
            <mxPoint x="220" y="410" as="sourcePoint" />
            <mxPoint x="310" y="410" as="targetPoint" />
            <Array as="points">
              <mxPoint x="820" y="1040" />
              <mxPoint x="820" y="1160" />
              <mxPoint x="340" y="1160" />
              <mxPoint x="340" y="365" />
            </Array>
          </mxGeometry>
        </mxCell>
        <mxCell id="IgG5niwhhBYyqKMsFp1a-222" value="" style="endArrow=block;dashed=1;html=1;rounded=0;endFill=0;endSize=10;startSize=10;entryX=1;entryY=0.5;entryDx=0;entryDy=0;exitX=0;exitY=0.5;exitDx=0;exitDy=0;edgeStyle=orthogonalEdgeStyle;" edge="1" parent="1" source="IgG5niwhhBYyqKMsFp1a-80" target="IgG5niwhhBYyqKMsFp1a-97">
          <mxGeometry width="50" height="50" relative="1" as="geometry">
            <mxPoint x="830" y="430" as="sourcePoint" />
            <mxPoint x="750" y="430" as="targetPoint" />
            <Array as="points">
              <mxPoint x="780" y="750" />
              <mxPoint x="780" y="775" />
            </Array>
          </mxGeometry>
        </mxCell>
        <mxCell id="IgG5niwhhBYyqKMsFp1a-223" value="" style="endArrow=block;dashed=1;html=1;rounded=0;endFill=0;endSize=10;startSize=10;entryX=1;entryY=0.5;entryDx=0;entryDy=0;exitX=0;exitY=0.5;exitDx=0;exitDy=0;edgeStyle=orthogonalEdgeStyle;" edge="1" parent="1" source="IgG5niwhhBYyqKMsFp1a-80" target="IgG5niwhhBYyqKMsFp1a-211">
          <mxGeometry width="50" height="50" relative="1" as="geometry">
            <mxPoint x="970" y="750" as="sourcePoint" />
            <mxPoint x="710" y="785" as="targetPoint" />
            <Array as="points">
              <mxPoint x="780" y="750" />
              <mxPoint x="780" y="935" />
            </Array>
          </mxGeometry>
        </mxCell>
        <mxCell id="IgG5niwhhBYyqKMsFp1a-224" value="" style="endArrow=block;dashed=1;html=1;rounded=0;endFill=0;endSize=10;startSize=10;entryX=1;entryY=0.5;entryDx=0;entryDy=0;exitX=0;exitY=0.5;exitDx=0;exitDy=0;edgeStyle=orthogonalEdgeStyle;" edge="1" parent="1" source="IgG5niwhhBYyqKMsFp1a-80" target="IgG5niwhhBYyqKMsFp1a-74">
          <mxGeometry width="50" height="50" relative="1" as="geometry">
            <mxPoint x="957" y="845" as="sourcePoint" />
            <mxPoint x="697" y="1040" as="targetPoint" />
            <Array as="points">
              <mxPoint x="780" y="750" />
              <mxPoint x="780" y="1100" />
            </Array>
          </mxGeometry>
        </mxCell>
        <mxCell id="IgG5niwhhBYyqKMsFp1a-225" value="" style="endArrow=block;dashed=1;html=1;rounded=0;endFill=0;endSize=10;startSize=10;exitX=0;exitY=0.5;exitDx=0;exitDy=0;edgeStyle=orthogonalEdgeStyle;entryX=0.5;entryY=0;entryDx=0;entryDy=0;" edge="1" parent="1" source="IgG5niwhhBYyqKMsFp1a-80" target="IgG5niwhhBYyqKMsFp1a-191">
          <mxGeometry width="50" height="50" relative="1" as="geometry">
            <mxPoint x="970" y="750" as="sourcePoint" />
            <mxPoint x="1160" y="920" as="targetPoint" />
            <Array as="points">
              <mxPoint x="780" y="750" />
              <mxPoint x="780" y="960" />
              <mxPoint x="1205" y="960" />
            </Array>
          </mxGeometry>
        </mxCell>
      </root>
    </mxGraphModel>
  </diagram>
</mxfile>
